<mxfile host="app.diagrams.net" modified="2021-04-16T23:05:19.168Z" agent="5.0 (Macintosh; Intel Mac OS X 10_15_7) AppleWebKit/537.36 (KHTML, like Gecko) Chrome/89.0.4389.72 Safari/537.36" etag="tB0EQhsX3Mc7e--iz1ps" version="14.6.1" type="github">
  <diagram id="rrJj300zeExrWMkwDSFR" name="Page-1">
    <mxGraphModel dx="1298" dy="866" grid="1" gridSize="10" guides="1" tooltips="1" connect="1" arrows="1" fold="1" page="1" pageScale="1" pageWidth="827" pageHeight="1169" math="0" shadow="0">
      <root>
        <mxCell id="0" />
        <mxCell id="1" parent="0" />
        <mxCell id="5Bev61Vi2x4O0tQK1Jlw-1" value="" style="whiteSpace=wrap;html=1;rounded=0;shadow=0;labelBackgroundColor=none;strokeColor=#000000;strokeWidth=1;fillColor=none;fontFamily=Verdana;fontSize=12;fontColor=#000000;align=center;comic=1;" parent="1" vertex="1">
          <mxGeometry x="20" y="10" width="1060" height="810" as="geometry" />
        </mxCell>
        <mxCell id="5Bev61Vi2x4O0tQK1Jlw-2" value="LOGO" style="whiteSpace=wrap;html=1;rounded=0;shadow=0;labelBackgroundColor=none;strokeWidth=1;fontFamily=Verdana;fontSize=28;align=center;comic=1;" parent="1" vertex="1">
          <mxGeometry x="40" y="75" width="190" height="50" as="geometry" />
        </mxCell>
        <mxCell id="5Bev61Vi2x4O0tQK1Jlw-3" value="Search" style="strokeWidth=1;shadow=0;dashed=0;align=center;html=1;shape=mxgraph.mockup.forms.searchBox;strokeColor=#999999;mainText=;strokeColor2=#008cff;fontColor=#666666;fontSize=17;align=left;spacingLeft=3;rounded=0;labelBackgroundColor=none;comic=1;" parent="1" vertex="1">
          <mxGeometry x="270" y="80" width="610" height="45" as="geometry" />
        </mxCell>
        <mxCell id="5Bev61Vi2x4O0tQK1Jlw-8" value="" style="line;strokeWidth=1;html=1;rounded=0;shadow=0;labelBackgroundColor=none;fillColor=none;fontFamily=Verdana;fontSize=14;fontColor=#000000;align=center;comic=1;" parent="1" vertex="1">
          <mxGeometry x="20" y="140" width="1060" height="10" as="geometry" />
        </mxCell>
        <mxCell id="5Bev61Vi2x4O0tQK1Jlw-10" value="Home" style="text;html=1;points=[];align=left;verticalAlign=top;spacingTop=-4;fontSize=14;fontFamily=Verdana" parent="1" vertex="1">
          <mxGeometry x="130" y="175" width="60" height="20" as="geometry" />
        </mxCell>
        <mxCell id="5Bev61Vi2x4O0tQK1Jlw-14" value="" style="verticalLabelPosition=bottom;shadow=0;dashed=0;align=center;html=1;verticalAlign=top;strokeWidth=1;shape=mxgraph.mockup.graphics.simpleIcon;strokeColor=#999999;rounded=0;labelBackgroundColor=none;fontFamily=Verdana;fontSize=14;fontColor=#000000;comic=1;" parent="1" vertex="1">
          <mxGeometry x="80" y="270" width="200" height="180" as="geometry" />
        </mxCell>
        <mxCell id="5Bev61Vi2x4O0tQK1Jlw-18" value="" style="whiteSpace=wrap;html=1;rounded=0;shadow=0;labelBackgroundColor=none;strokeWidth=1;fillColor=none;fontFamily=Verdana;fontSize=12;align=center;comic=1;" parent="1" vertex="1">
          <mxGeometry x="30" y="740" width="1040" height="50" as="geometry" />
        </mxCell>
        <mxCell id="5Bev61Vi2x4O0tQK1Jlw-30" value="" style="whiteSpace=wrap;html=1;rounded=0;shadow=0;labelBackgroundColor=none;strokeWidth=1;fillColor=none;fontFamily=Verdana;fontSize=12;align=center;comic=1;" parent="1" vertex="1">
          <mxGeometry x="30" y="160" width="1040" height="50" as="geometry" />
        </mxCell>
        <mxCell id="5Bev61Vi2x4O0tQK1Jlw-31" value="" style="pointerEvents=1;shadow=0;dashed=0;html=1;strokeColor=none;fillColor=#505050;labelPosition=center;verticalLabelPosition=bottom;verticalAlign=top;outlineConnect=0;align=center;shape=mxgraph.office.concepts.home;" parent="1" vertex="1">
          <mxGeometry x="538" y="750" width="25" height="30" as="geometry" />
        </mxCell>
        <mxCell id="IiAX3JFG5VN4n4X1tmBf-1" value="" style="verticalLabelPosition=bottom;shadow=0;dashed=0;align=center;html=1;verticalAlign=top;strokeWidth=1;shape=mxgraph.mockup.graphics.simpleIcon;strokeColor=#999999;rounded=0;labelBackgroundColor=none;fontFamily=Verdana;fontSize=14;fontColor=#000000;comic=1;" vertex="1" parent="1">
          <mxGeometry x="320" y="270" width="200" height="180" as="geometry" />
        </mxCell>
        <mxCell id="IiAX3JFG5VN4n4X1tmBf-2" value="" style="verticalLabelPosition=bottom;shadow=0;dashed=0;align=center;html=1;verticalAlign=top;strokeWidth=1;shape=mxgraph.mockup.graphics.simpleIcon;strokeColor=#999999;rounded=0;labelBackgroundColor=none;fontFamily=Verdana;fontSize=14;fontColor=#000000;comic=1;" vertex="1" parent="1">
          <mxGeometry x="560" y="270" width="200" height="180" as="geometry" />
        </mxCell>
        <mxCell id="IiAX3JFG5VN4n4X1tmBf-3" value="" style="verticalLabelPosition=bottom;shadow=0;dashed=0;align=center;html=1;verticalAlign=top;strokeWidth=1;shape=mxgraph.mockup.graphics.simpleIcon;strokeColor=#999999;rounded=0;labelBackgroundColor=none;fontFamily=Verdana;fontSize=14;fontColor=#000000;comic=1;" vertex="1" parent="1">
          <mxGeometry x="800" y="270" width="200" height="180" as="geometry" />
        </mxCell>
        <mxCell id="IiAX3JFG5VN4n4X1tmBf-4" value="" style="verticalLabelPosition=bottom;shadow=0;dashed=0;align=center;html=1;verticalAlign=top;strokeWidth=1;shape=mxgraph.mockup.graphics.simpleIcon;strokeColor=#999999;rounded=0;labelBackgroundColor=none;fontFamily=Verdana;fontSize=14;fontColor=#000000;comic=1;" vertex="1" parent="1">
          <mxGeometry x="80" y="510" width="200" height="180" as="geometry" />
        </mxCell>
        <mxCell id="IiAX3JFG5VN4n4X1tmBf-5" value="" style="verticalLabelPosition=bottom;shadow=0;dashed=0;align=center;html=1;verticalAlign=top;strokeWidth=1;shape=mxgraph.mockup.graphics.simpleIcon;strokeColor=#999999;rounded=0;labelBackgroundColor=none;fontFamily=Verdana;fontSize=14;fontColor=#000000;comic=1;" vertex="1" parent="1">
          <mxGeometry x="320" y="510" width="200" height="180" as="geometry" />
        </mxCell>
        <mxCell id="IiAX3JFG5VN4n4X1tmBf-6" value="" style="verticalLabelPosition=bottom;shadow=0;dashed=0;align=center;html=1;verticalAlign=top;strokeWidth=1;shape=mxgraph.mockup.graphics.simpleIcon;strokeColor=#999999;rounded=0;labelBackgroundColor=none;fontFamily=Verdana;fontSize=14;fontColor=#000000;comic=1;" vertex="1" parent="1">
          <mxGeometry x="563" y="510" width="200" height="180" as="geometry" />
        </mxCell>
        <mxCell id="IiAX3JFG5VN4n4X1tmBf-7" value="" style="verticalLabelPosition=bottom;shadow=0;dashed=0;align=center;html=1;verticalAlign=top;strokeWidth=1;shape=mxgraph.mockup.graphics.simpleIcon;strokeColor=#999999;rounded=0;labelBackgroundColor=none;fontFamily=Verdana;fontSize=14;fontColor=#000000;comic=1;" vertex="1" parent="1">
          <mxGeometry x="800" y="510" width="200" height="180" as="geometry" />
        </mxCell>
        <mxCell id="IiAX3JFG5VN4n4X1tmBf-8" value="&lt;b&gt;Nombre Usurio&lt;/b&gt;" style="text;html=1;points=[];align=left;verticalAlign=top;spacingTop=-4;fontSize=14;fontFamily=Verdana" vertex="1" parent="1">
          <mxGeometry x="940" y="40" width="60" height="20" as="geometry" />
        </mxCell>
        <mxCell id="IiAX3JFG5VN4n4X1tmBf-9" value="Album 1" style="text;html=1;points=[];align=left;verticalAlign=top;spacingTop=-4;fontSize=14;fontFamily=Verdana" vertex="1" parent="1">
          <mxGeometry x="150" y="240" width="60" height="20" as="geometry" />
        </mxCell>
        <mxCell id="IiAX3JFG5VN4n4X1tmBf-10" value="Album 2" style="text;html=1;points=[];align=left;verticalAlign=top;spacingTop=-4;fontSize=14;fontFamily=Verdana" vertex="1" parent="1">
          <mxGeometry x="390" y="240" width="60" height="20" as="geometry" />
        </mxCell>
        <mxCell id="IiAX3JFG5VN4n4X1tmBf-11" value="Album 3" style="text;html=1;points=[];align=left;verticalAlign=top;spacingTop=-4;fontSize=14;fontFamily=Verdana" vertex="1" parent="1">
          <mxGeometry x="630" y="240" width="60" height="20" as="geometry" />
        </mxCell>
        <mxCell id="IiAX3JFG5VN4n4X1tmBf-12" value="Album 4" style="text;html=1;points=[];align=left;verticalAlign=top;spacingTop=-4;fontSize=14;fontFamily=Verdana" vertex="1" parent="1">
          <mxGeometry x="870" y="240" width="60" height="20" as="geometry" />
        </mxCell>
        <mxCell id="IiAX3JFG5VN4n4X1tmBf-13" value="Album 5" style="text;html=1;points=[];align=left;verticalAlign=top;spacingTop=-4;fontSize=14;fontFamily=Verdana" vertex="1" parent="1">
          <mxGeometry x="150" y="480" width="60" height="20" as="geometry" />
        </mxCell>
        <mxCell id="IiAX3JFG5VN4n4X1tmBf-14" value="Album 6" style="text;html=1;points=[];align=left;verticalAlign=top;spacingTop=-4;fontSize=14;fontFamily=Verdana" vertex="1" parent="1">
          <mxGeometry x="384" y="480" width="60" height="20" as="geometry" />
        </mxCell>
        <mxCell id="IiAX3JFG5VN4n4X1tmBf-15" value="Album 7" style="text;html=1;points=[];align=left;verticalAlign=top;spacingTop=-4;fontSize=14;fontFamily=Verdana" vertex="1" parent="1">
          <mxGeometry x="630" y="480" width="60" height="20" as="geometry" />
        </mxCell>
        <mxCell id="IiAX3JFG5VN4n4X1tmBf-16" value="Album 8" style="text;html=1;points=[];align=left;verticalAlign=top;spacingTop=-4;fontSize=14;fontFamily=Verdana" vertex="1" parent="1">
          <mxGeometry x="870" y="480" width="60" height="20" as="geometry" />
        </mxCell>
        <mxCell id="IiAX3JFG5VN4n4X1tmBf-17" value="" style="shape=image;html=1;verticalAlign=top;verticalLabelPosition=bottom;labelBackgroundColor=#ffffff;imageAspect=0;aspect=fixed;image=https://cdn1.iconfinder.com/data/icons/feather-2/24/menu-128.png" vertex="1" parent="1">
          <mxGeometry x="50" y="165" width="40" height="40" as="geometry" />
        </mxCell>
      </root>
    </mxGraphModel>
  </diagram>
</mxfile>
